<svg width="24" height="24" viewBox="0 0 24 24" fill="currentColor" xmlns="http://www.w3.org/2000/svg">
  <path d="M12.525.02c1.31-.02 2.61-.01 3.91-.02.08 1.53.63 3.09 1.75 4.17 1.12 1.11 2.7 1.62 4.24 1.79v4.03c-1.44-.05-2.89-.35-4.33-.97-.45 2.29-.99 4.54-1.5 6.82-.44 1.45-.99 2.85-1.51 4.21-1.42 3.51-3.8 6.85-7.44 7.9-1.26.4-2.6.523-3.92.523-1.31 0-2.653-.122-3.905-.523 3.641-1.05 6.016-4.379 7.434-7.88.53-1.36 1.046-2.77 1.497-4.218.5-2.281 1.053-4.53 1.495-6.818 1.443.62 2.882.92 4.319.98V5.98c-1.54-.17-3.12-.67-4.24-1.79-.93-.91-1.62-2.04-1.77-3.21z"/>
</svg>
